<svg width="39" height="39" viewBox="0 0 39 39" fill="none" xmlns="http://www.w3.org/2000/svg">
<path d="M19.1938 3.23193C10.3743 3.23193 3.19897 10.481 3.19897 19.3913C3.19897 28.3015 10.3743 35.5506 19.1938 35.5506C28.0134 35.5506 35.1887 28.3015 35.1887 19.3913C35.1887 10.481 28.0134 3.23193 19.1938 3.23193ZM15.9965 26.5224L11.1776 21.6644C10.5571 21.0389 10.5559 20.0305 11.1748 19.4035C11.8031 18.7669 12.8302 18.7657 13.46 19.4009L15.9933 21.9558L23.3186 14.5552C23.9476 13.9197 24.9743 13.9197 25.6034 14.5552C26.2234 15.1815 26.2234 16.1903 25.6034 16.8167L15.9965 26.5224Z" fill="#2FAB73"/>
</svg>
