<?xml version="1.0" encoding="utf-8"?>
<svg
	version="1.1"
	xmlns="http://www.w3.org/2000/svg"
	xmlns:xlink="http://www.w3.org/1999/xlink"
	x="0%" y="0%"
	width="100%" height="100%"
	viewBox="0 0 140.0 150.0"
	enable-background="new 0 0 140.0 150.0"
	xml:space="preserve">
	<path
		fill="#9CC0AC"
		stroke="#001010"
		fill-opacity="1.000"
		stroke-opacity="1.000"
		fill-rule="nonzero"
		stroke-width="0.33117074"
		stroke-linejoin="miter"
		stroke-linecap="square"
		d="M97.36,48.59C94.44,47.92,90.99,50.87,90.80,52.86C111.09,70.77,111.71,90.30,109.78,102.10L107.28,101.70C110.68,83.51,104.08,69.24,94.30,59.86C88.61,53.67,80.20,48.49,74.63,45.77C68.79,43.45,63.58,41.97,57.26,42.33C61.76,46.27,61.66,54.74,56.96,60.05C60.03,50.95,56.30,44.90,52.90,41.84C48.66,42.25,39.37,44.60,35.94,47.20C35.95,47.64,36.12,49.15,36.45,50.16C38.87,52.20,40.51,53.22,44.24,55.53C42.11,55.39,40.97,55.03,38.68,54.58C55.02,80.09,92.62,64.49,105.21,84.79C95.63,77.59,79.06,74.17,73.57,74.58C74.92,76.04,76.94,77.79,78.62,79.05C68.43,77.56,64.12,77.63,59.63,75.17C56.55,73.77,55.17,70.90,50.33,68.69C43.69,65.68,35.15,59.25,33.90,46.43C44.10,40.68,64.12,33.82,97.36,48.59z"/>
	<path
		fill="#9CC0AC"
		stroke="#001010"
		fill-opacity="1.000"
		stroke-opacity="1.000"
		fill-rule="nonzero"
		stroke-width="0.33117074"
		stroke-linejoin="miter"
		stroke-linecap="square"
		d="M95.29,100.31C93.21,100.11,88.53,100.11,87.55,99.87C94.90,98.57,99.93,95.88,104.38,89.09C104.70,93.56,100.65,97.04,95.29,100.31z"/>
	<path
		fill="#9CC0AC"
		stroke="#001010"
		fill-opacity="1.000"
		stroke-opacity="1.000"
		fill-rule="nonzero"
		stroke-width="0.33117074"
		stroke-linejoin="miter"
		stroke-linecap="square"
		d="M104.10,120.45C102.06,125.14,99.01,129.80,97.22,132.77Q96.93,132.74,96.29,132.55C96.71,124.53,96.51,119.31,96.34,116.85C98.18,117.57,101.26,118.93,104.10,120.45z"/>
	<path
		fill="#18A2A6"
		stroke="#001010"
		fill-opacity="1.000"
		stroke-opacity="1.000"
		fill-rule="nonzero"
		stroke-width="0.33117074"
		stroke-linejoin="miter"
		stroke-linecap="square"
		d="M132.18,106.59C131.58,111.96,124.61,122.02,118.35,128.80C110.68,123.32,94.90,115.01,77.75,110.01C59.97,105.51,48.30,104.63,30.46,108.04C39.54,104.32,52.54,98.91,84.20,99.87C101.26,100.01,115.28,102.76,132.18,106.59z"/>
	<path
		fill="#18A2A6"
		stroke="#001010"
		fill-opacity="1.000"
		stroke-opacity="1.000"
		fill-rule="nonzero"
		stroke-width="0.33117074"
		stroke-linejoin="miter"
		stroke-linecap="square"
		d="M108.01,137.35C97.25,129.73,56.34,123.96,31.29,135.33C55.06,153.23,83.29,152.09,108.01,137.35z"/>
	<path
		fill="#18A2A6"
		stroke="#001010"
		fill-opacity="1.000"
		stroke-opacity="1.000"
		fill-rule="nonzero"
		stroke-width="0.33117074"
		stroke-linejoin="miter"
		stroke-linecap="square"
		d="M26.76,131.75C24.22,130.42,17.23,123.26,14.76,117.83C31.07,114.10,56.89,110.73,77.87,123.67C51.57,120.65,38.91,123.11,26.76,131.75z"/>
	<path
		fill="#C6C183"
		stroke="#001010"
		fill-opacity="1.000"
		stroke-opacity="1.000"
		fill-rule="nonzero"
		stroke-width="0.33117074"
		stroke-linejoin="miter"
		stroke-linecap="square"
		d="M11.23,110.59C9.74,107.31,6.45,100.79,5.54,90.14C10.77,88.27,43.19,82.91,65.85,91.91C45.53,92.42,24.95,100.61,11.23,110.59z"/>
	<path
		fill="#C6C183"
		stroke="#001010"
		fill-opacity="1.000"
		stroke-opacity="1.000"
		fill-rule="nonzero"
		stroke-width="0.33117074"
		stroke-linejoin="miter"
		stroke-linecap="square"
		d="M135.62,95.20C141.72,3.74,19.10,-8.13,5.10,81.21L9.10,81.54C24.01,-1.90,135.51,9.16,131.58,94.85L135.62,95.20z"/>
	<path
		fill="#C6C183"
		stroke="#001010"
		fill-opacity="1.000"
		stroke-opacity="1.000"
		fill-rule="nonzero"
		stroke-width="0.33117074"
		stroke-linejoin="round"
		stroke-linecap="square"
		d="M51.30,18.77C60.66,18.30,57.66,-2.91,46.48,7.70L51.30,18.77zM52.65,14.88L50.03,9.00C52.65,5.64,55.56,11.66,52.65,14.88z"/>
	<path
		fill="#C6C183"
		stroke="#001010"
		fill-opacity="1.000"
		stroke-opacity="1.000"
		fill-rule="nonzero"
		stroke-width="0.33117074"
		stroke-linejoin="miter"
		stroke-linecap="square"
		d="M61.96,1.20C64.38,1.20,66.35,4.26,66.35,8.04C66.35,11.81,64.38,14.87,61.96,14.87C59.53,14.87,57.56,11.81,57.56,8.04C57.56,4.26,59.53,1.20,61.96,1.20zM61.89,3.97C61.07,3.97,60.41,5.67,60.41,7.76C60.41,9.85,61.07,11.55,61.89,11.55C62.71,11.55,63.37,9.85,63.37,7.76C63.37,5.67,62.71,3.97,61.89,3.97z"/>
	<path
		fill="#C6C183"
		stroke="#001010"
		fill-opacity="1.000"
		stroke-opacity="1.000"
		fill-rule="nonzero"
		stroke-width="0.33117074"
		stroke-linejoin="round"
		stroke-linecap="square"
		d="M75.46,13.33L72.90,14.57L71.09,10.08L69.77,10.29L69.15,13.67L66.48,13.40L68.85,1.69C77.66,-0.03,78.69,5.72,73.98,9.21L75.46,13.33zM70.68,7.09C75.19,6.38,74.53,3.59,71.00,4.58L70.68,7.09z"/>
	<path
		fill="#C6C183"
		stroke="#001010"
		fill-opacity="1.000"
		stroke-opacity="1.000"
		fill-rule="nonzero"
		stroke-width="0.33117074"
		stroke-linejoin="round"
		stroke-linecap="square"
		d="M82.66,3.82L82.49,9.03L86.98,5.37L89.03,7.10L81.75,13.66L79.95,16.78L77.54,15.54L79.31,12.42L80.10,3.63L82.66,3.82z"/>
	<path
		fill="#9AC1AB"
		stroke="#001010"
		fill-opacity="1.000"
		stroke-opacity="1.000"
		fill-rule="nonzero"
		stroke-width="0.33117074"
		stroke-linejoin="miter"
		stroke-linecap="square"
		d="M45.90,46.65C47.23,46.65,48.31,47.59,48.31,48.75C48.31,49.90,47.23,50.84,45.90,50.84C44.57,50.84,43.49,49.90,43.49,48.75C43.49,47.59,44.57,46.65,45.90,46.65z"/>
</svg>