<svg width="37" height="59" viewBox="0 0 37 59" fill="none" xmlns="http://www.w3.org/2000/svg">
<path d="M22.4243 29.5L34.2828 17.6816L36.7283 15.2444C37.089 14.8848 37.089 14.3006 36.7283 13.9411L34.1117 11.3333C33.7509 10.9738 33.1647 10.9738 32.804 11.3333L18.5 25.5889L4.19603 11.3321C3.83528 10.9726 3.24906 10.9726 2.88831 11.3321L0.270562 13.9399C-0.0901875 14.2994 -0.0901875 14.8837 0.270562 15.2432L14.5757 29.5L0.270562 43.7556C-0.0901875 44.1152 -0.0901875 44.6994 0.270562 45.0589L2.88716 47.6667C3.24791 48.0262 3.83412 48.0262 4.19487 47.6667L18.5 33.4111L30.3585 45.2295L32.804 47.6667C33.1647 48.0262 33.7509 48.0262 34.1117 47.6667L36.7283 45.0589C37.089 44.6994 37.089 44.1152 36.7283 43.7556L22.4243 29.5Z" fill="white"/>
</svg>
